# Hierarchical Translation and Rotation (.htr) file
# Generated by EVaRT
[Header]
FileType htr
DataType HTRS
FileVersion 1
NumSegments 23
NumFrames 4
DataFrameRate 120
EulerRotationOrder ZYX
CalibrationUnits mm
RotationUnits Degrees
GlobalAxisofGravity Y
BoneLengthAxis Y
ScaleFactor 1
[SegmentNames&Hierarchy]
#CHILD            PARENT
DaveRoot          GLOBAL
Spine1            DaveRoot
Spine2            Spine1
Spine3            Spine2
Spine4            Spine3
Neck              Spine4
Head              Neck
LClavicle         Spine4
LUpperArm         LClavicle
LLowerArm         LUpperArm
LHand             LLowerArm
RClavicle         Spine4
RUpperArm         RClavicle
RLowerArm         RUpperArm
RHand             RLowerArm
RUpperLeg         DaveRoot
RLowerLeg         RUpperLeg
RFoot             RLowerLeg
RToes             RFoot
LUpperLeg         DaveRoot
LLowerLeg         LUpperLeg
LFoot             LLowerLeg
LToes             LFoot
[BasePosition]
#SegmentName      Tx   Ty   Tz   Rx   Ry   Rz   BoneLength
DaveRoot          9999999.000000	9999999.000000	9999999.000000	9999999.000000	9999999.000000	9999999.000000	9999999.000000
Spine1            9999999.000000	9999999.000000	9999999.000000	9999999.000000	9999999.000000	9999999.000000	9999999.000000
Spine2            9999999.000000	9999999.000000	9999999.000000	9999999.000000	9999999.000000	9999999.000000	9999999.000000
Spine3            9999999.000000	9999999.000000	9999999.000000	9999999.000000	9999999.000000	9999999.000000	9999999.000000
Spine4            9999999.000000	9999999.000000	9999999.000000	9999999.000000	9999999.000000	9999999.000000	9999999.000000
Neck              9999999.000000	9999999.000000	9999999.000000	9999999.000000	9999999.000000	9999999.000000	9999999.000000
Head              9999999.000000	9999999.000000	9999999.000000	9999999.000000	9999999.000000	9999999.000000	9999999.000000
LClavicle         9999999.000000	9999999.000000	9999999.000000	9999999.000000	9999999.000000	9999999.000000	9999999.000000
LUpperArm         9999999.000000	9999999.000000	9999999.000000	9999999.000000	9999999.000000	9999999.000000	9999999.000000
LLowerArm         9999999.000000	9999999.000000	9999999.000000	9999999.000000	9999999.000000	9999999.000000	9999999.000000
LHand             9999999.000000	9999999.000000	9999999.000000	9999999.000000	9999999.000000	9999999.000000	9999999.000000
RClavicle         9999999.000000	9999999.000000	9999999.000000	9999999.000000	9999999.000000	9999999.000000	9999999.000000
RUpperArm         9999999.000000	9999999.000000	9999999.000000	9999999.000000	9999999.000000	9999999.000000	9999999.000000
RLowerArm         9999999.000000	9999999.000000	9999999.000000	9999999.000000	9999999.000000	9999999.000000	9999999.000000
RHand             9999999.000000	9999999.000000	9999999.000000	9999999.000000	9999999.000000	9999999.000000	9999999.000000
RUpperLeg         9999999.000000	9999999.000000	9999999.000000	9999999.000000	9999999.000000	9999999.000000	9999999.000000
RLowerLeg         9999999.000000	9999999.000000	9999999.000000	9999999.000000	9999999.000000	9999999.000000	9999999.000000
RFoot             9999999.000000	9999999.000000	9999999.000000	9999999.000000	9999999.000000	9999999.000000	9999999.000000
RToes             9999999.000000	9999999.000000	9999999.000000	9999999.000000	9999999.000000	9999999.000000	9999999.000000
LUpperLeg         9999999.000000	9999999.000000	9999999.000000	9999999.000000	9999999.000000	9999999.000000	9999999.000000
LLowerLeg         9999999.000000	9999999.000000	9999999.000000	9999999.000000	9999999.000000	9999999.000000	9999999.000000
LFoot             9999999.000000	9999999.000000	9999999.000000	9999999.000000	9999999.000000	9999999.000000	9999999.000000
LToes             9999999.000000	9999999.000000	9999999.000000	9999999.000000	9999999.000000	9999999.000000	9999999.000000
#Beginning of Data.
[DaveRoot]
#Fr	Tx	Ty	Tz	Rx	Ry	Rz	SF
476	-10002792.235441	-9999016.128576	-10000129.562060	4.959948	-73.423045	10.685103	0.000010	
477	-10002792.235441	-9999016.128576	-10000129.562060	4.959948	-73.423045	10.685103	0.000010	
478	-10002792.235441	-9999016.128576	-10000129.562060	4.959948	-73.423045	10.685103	0.000010	
479	-10002891.084772	-9999026.924120	-10000125.964339	4.960064	-73.511221	10.145828	0.000010	
[Spine1]
#Fr	Tx	Ty	Tz	Rx	Ry	Rz	SF
476	-9999999.000000	-9999899.000000	-9999999.000000	-0.066067	-0.619634	-0.206473	0.000010	
477	-9999999.000000	-9999899.000000	-9999999.000000	-0.066067	-0.619634	-0.206473	0.000010	
478	-9999999.000000	-9999899.000000	-9999999.000000	-0.066067	-0.619634	-0.206473	0.000010	
479	-9999999.000000	-9999899.000000	-9999999.000000	-0.066067	-0.619634	-0.206473	0.000010	
[Spine2]
#Fr	Tx	Ty	Tz	Rx	Ry	Rz	SF
476	-9999999.000000	-9999899.000000	-9999999.000000	-0.066067	-0.619634	-0.206473	0.000010	
477	-9999999.000000	-9999899.000000	-9999999.000000	-0.066067	-0.619634	-0.206473	0.000010	
478	-9999999.000000	-9999899.000000	-9999999.000000	-0.066067	-0.619634	-0.206473	0.000010	
479	-9999999.000000	-9999899.000000	-9999999.000000	-0.066067	-0.619634	-0.206473	0.000010	
[Spine3]
#Fr	Tx	Ty	Tz	Rx	Ry	Rz	SF
476	-9999999.000000	-9999899.000000	-9999999.000000	-0.066067	-0.619634	-0.206473	0.000010	
477	-9999999.000000	-9999899.000000	-9999999.000000	-0.066067	-0.619634	-0.206473	0.000010	
478	-9999999.000000	-9999899.000000	-9999999.000000	-0.066067	-0.619634	-0.206473	0.000010	
479	-9999999.000000	-9999899.000000	-9999999.000000	-0.066067	-0.619634	-0.206473	0.000010	
[Spine4]
#Fr	Tx	Ty	Tz	Rx	Ry	Rz	SF
476	-9999999.000000	-9999899.000000	-9999999.000000	-0.066067	-0.619634	-0.206473	0.000010	
477	-9999999.000000	-9999899.000000	-9999999.000000	-0.066067	-0.619634	-0.206473	0.000010	
478	-9999999.000000	-9999899.000000	-9999999.000000	-0.066067	-0.619634	-0.206473	0.000010	
479	-9999999.000000	-9999899.000000	-9999999.000000	-0.066067	-0.619634	-0.206473	0.000010	
[Neck]
#Fr	Tx	Ty	Tz	Rx	Ry	Rz	SF
476	-9999999.000000	-9999899.000000	-9999999.000000	-9.410549	-20.780870	-0.167354	0.000008	
477	-9999999.000000	-9999899.000000	-9999999.000000	-9.410549	-20.780870	-0.167354	0.000008	
478	-9999999.000000	-9999899.000000	-9999999.000000	-9.410549	-20.780870	-0.167354	0.000008	
479	-9999999.000000	-9999899.000000	-9999999.000000	-9.162631	-20.462027	-0.437302	0.000008	
[Head]
#Fr	Tx	Ty	Tz	Rx	Ry	Rz	SF
476	-9999999.000000	-9999919.000000	-9999999.000000	-9.410549	-20.780870	-0.167354	0.000020	
477	-9999999.000000	-9999919.000000	-9999999.000000	-9.410549	-20.780870	-0.167354	0.000020	
478	-9999999.000000	-9999919.000000	-9999999.000000	-9.410549	-20.780870	-0.167354	0.000020	
479	-9999999.000000	-9999919.000000	-9999999.000000	-9.162631	-20.462027	-0.437302	0.000020	
[LClavicle]
#Fr	Tx	Ty	Tz	Rx	Ry	Rz	SF
476	-9999999.000000	-9999899.000000	-9999999.000000	-170.047060	-4.020020	-156.701249	0.000020	
477	-9999999.000000	-9999899.000000	-9999999.000000	-170.047060	-4.020020	-156.701249	0.000020	
478	-9999999.000000	-9999899.000000	-9999999.000000	-170.047060	-4.020020	-156.701249	0.000020	
479	-9999999.000000	-9999899.000000	-9999999.000000	-170.077771	-3.727013	-158.093195	0.000020	
[LUpperArm]
#Fr	Tx	Ty	Tz	Rx	Ry	Rz	SF
476	-9999999.000000	-9999799.000000	-9999999.000000	-166.582440	-36.018403	-98.921223	0.000030	
477	-9999999.000000	-9999799.000000	-9999999.000000	-166.582440	-36.018403	-98.921223	0.000030	
478	-9999999.000000	-9999799.000000	-9999999.000000	-166.582440	-36.018403	-98.921223	0.000030	
479	-9999999.000000	-9999799.000000	-9999999.000000	-166.291515	-36.461672	-100.751861	0.000030	
[LLowerArm]
#Fr	Tx	Ty	Tz	Rx	Ry	Rz	SF
476	-9999999.000000	-9999699.000000	-9999999.000000	75.730573	0.000000	0.000000	0.000020	
477	-9999999.000000	-9999699.000000	-9999999.000000	75.731719	0.000000	0.000000	0.000020	
478	-9999999.000000	-9999699.000000	-9999999.000000	82.249523	0.000000	0.000000	0.000020	
479	-9999999.000000	-9999699.000000	-9999999.000000	77.943772	0.000000	0.000000	0.000020	
[LHand]
#Fr	Tx	Ty	Tz	Rx	Ry	Rz	SF
476	-9999999.000000	-9999799.000000	-9999999.000000	37.350065	0.000000	-0.000000	0.000012	
477	-9999999.000000	-9999799.000000	-9999999.000000	37.350065	0.000000	-0.000000	0.000012	
478	-9999999.000000	-9999799.000000	-9999999.000000	37.350065	0.000000	-0.000000	0.000012	
479	-9999999.000000	-9999799.000000	-9999999.000000	36.680785	0.000000	-0.000000	0.000012	
[RClavicle]
#Fr	Tx	Ty	Tz	Rx	Ry	Rz	SF
476	-9999999.000000	-9999899.000000	-9999999.000000	11.685858	0.275441	-1.133385	0.000020	
477	-9999999.000000	-9999899.000000	-9999999.000000	11.685858	0.275441	-1.133385	0.000020	
478	-9999999.000000	-9999899.000000	-9999999.000000	11.685858	0.275441	-1.133385	0.000020	
479	-9999999.000000	-9999899.000000	-9999999.000000	10.550686	-0.331072	1.975027	0.000020	
[RUpperArm]
#Fr	Tx	Ty	Tz	Rx	Ry	Rz	SF
476	-9999999.000000	-9999799.000000	-9999999.000000	23.026456	-15.224784	44.639480	0.000030	
477	-9999999.000000	-9999799.000000	-9999999.000000	23.026456	-15.224784	44.639480	0.000030	
478	-9999999.000000	-9999799.000000	-9999999.000000	23.026456	-15.224784	44.639480	0.000030	
479	-9999999.000000	-9999799.000000	-9999999.000000	23.277177	-18.444873	40.803330	0.000030	
[RLowerArm]
#Fr	Tx	Ty	Tz	Rx	Ry	Rz	SF
476	-9999999.000000	-9999699.000000	-9999999.000000	-0.943721	0.000000	0.000000	0.000020	
477	-9999999.000000	-9999699.000000	-9999999.000000	-0.943721	0.000000	0.000000	0.000020	
478	-9999999.000000	-9999699.000000	-9999999.000000	-0.943721	0.000000	0.000000	0.000020	
479	-9999999.000000	-9999699.000000	-9999999.000000	-0.943721	0.000000	0.000000	0.000020	
[RHand]
#Fr	Tx	Ty	Tz	Rx	Ry	Rz	SF
476	-9999999.000000	-9999799.000000	-9999999.000000	1.349794	6.658898	0.051433	0.000012	
477	-9999999.000000	-9999799.000000	-9999999.000000	1.349794	6.658898	0.051433	0.000012	
478	-9999999.000000	-9999799.000000	-9999999.000000	1.349794	6.658898	0.051433	0.000012	
479	-9999999.000000	-9999799.000000	-9999999.000000	1.349794	6.658898	0.051433	0.000012	
[RUpperLeg]
#Fr	Tx	Ty	Tz	Rx	Ry	Rz	SF
476	-10000114.911102	-10000009.000000	-9999967.941715	-13.829208	3.255113	7.358251	0.000053	
477	-10000114.911102	-10000009.000000	-9999967.941715	-13.829208	3.255113	7.358251	0.000053	
478	-10000114.911102	-10000009.000000	-9999967.941715	-13.829208	3.255113	7.358251	0.000053	
479	-10000114.911102	-10000009.000000	-9999967.941715	-11.633634	-1.937952	8.737702	0.000053	
[RLowerLeg]
#Fr	Tx	Ty	Tz	Rx	Ry	Rz	SF
476	-9999999.000000	-9999469.000000	-9999999.000000	-21.583549	-0.000000	0.000000	0.000046	
477	-9999999.000000	-9999469.000000	-9999999.000000	-21.583549	-0.000000	0.000000	0.000046	
478	-9999999.000000	-9999469.000000	-9999999.000000	-21.583549	-0.000000	0.000000	0.000046	
479	-9999999.000000	-9999469.000000	-9999999.000000	-33.439174	-0.000000	0.000000	0.000046	
[RFoot]
#Fr	Tx	Ty	Tz	Rx	Ry	Rz	SF
476	-9999999.000000	-9999539.000000	-9999999.000000	-33.605618	46.279057	-25.903100	0.000013	
477	-9999999.000000	-9999539.000000	-9999999.000000	-33.605618	46.279057	-25.903100	0.000013	
478	-9999999.000000	-9999539.000000	-9999999.000000	-33.605618	46.279057	-25.903100	0.000013	
479	-9999999.000000	-9999539.000000	-9999999.000000	-28.516815	42.563104	-24.531213	0.000013	
[RToes]
#Fr	Tx	Ty	Tz	Rx	Ry	Rz	SF
476	-9999999.000000	-9999869.000000	-9999999.000000	-34.241364	0.000000	-0.000000	0.000010	
477	-9999999.000000	-9999869.000000	-9999999.000000	-34.241364	0.000000	-0.000000	0.000010	
478	-9999999.000000	-9999869.000000	-9999999.000000	-14.846214	-0.000000	-0.000000	0.000010	
479	-9999999.000000	-9999869.000000	-9999999.000000	-35.733874	0.000000	-0.000000	0.000010	
[LUpperLeg]
#Fr	Tx	Ty	Tz	Rx	Ry	Rz	SF
476	-9999883.088898	-10000009.000000	-9999967.941715	25.557420	5.232171	0.574322	0.000053	
477	-9999883.088898	-10000009.000000	-9999967.941715	25.557420	5.232171	0.574322	0.000053	
478	-9999883.088898	-10000009.000000	-9999967.941715	29.264799	7.767851	1.710960	0.000053	
479	-9999883.088898	-10000009.000000	-9999967.941715	21.379173	4.373494	-0.272677	0.000053	
[LLowerLeg]
#Fr	Tx	Ty	Tz	Rx	Ry	Rz	SF
476	-9999999.000000	-9999469.000000	-9999999.000000	2.871092	0.000000	-0.000000	0.000046	
477	-9999999.000000	-9999469.000000	-9999999.000000	2.871092	0.000000	-0.000000	0.000046	
478	-9999999.000000	-9999469.000000	-9999999.000000	6.574366	0.000000	-0.000000	0.000046	
479	-9999999.000000	-9999469.000000	-9999999.000000	12.447113	0.000000	-0.000000	0.000046	
[LFoot]
#Fr	Tx	Ty	Tz	Rx	Ry	Rz	SF
476	-9999999.000000	-9999539.000000	-9999999.000000	6.460575	81.923107	17.133826	0.000013	
477	-9999999.000000	-9999539.000000	-9999999.000000	6.467396	81.931647	17.140716	0.000013	
478	-9999999.000000	-9999539.000000	-9999999.000000	7.445761	25.034969	10.433140	0.000013	
479	-9999999.000000	-9999539.000000	-9999999.000000	22.582799	70.701988	31.917236	0.000013	
[LToes]
#Fr	Tx	Ty	Tz	Rx	Ry	Rz	SF
476	-9999999.000000	-9999869.000000	-9999999.000000	-1.304855	0.000000	-0.000000	0.000010	
477	-9999999.000000	-9999869.000000	-9999999.000000	-1.304855	0.000000	-0.000000	0.000010	
478	-9999999.000000	-9999869.000000	-9999999.000000	-1.304855	0.000000	-0.000000	0.000010	
479	-9999999.000000	-9999869.000000	-9999999.000000	-1.304855	0.000000	-0.000000	0.000010	
